<svg xmlns="http://www.w3.org/2000/svg" width="222.17" height="35" viewBox="0 0 222.17 35"><rect class="svg__rect" x="0" y="0" width="67.78" height="35" fill="#31C4F3"/><rect class="svg__rect" x="65.78" y="0" width="156.39" height="35" fill="#389AD5"/><path class="svg__text" d="M19.57 22L14.22 22L14.22 13.47L15.70 13.47L15.70 20.82L19.57 20.82L19.57 22ZM29.28 22L23.70 22L23.70 13.47L29.23 13.47L29.23 14.66L25.18 14.66L25.18 17.02L28.68 17.02L28.68 18.19L25.18 18.19L25.18 20.82L29.28 20.82L29.28 22ZM35.15 14.66L32.52 14.66L32.52 13.47L39.28 13.47L39.28 14.66L36.62 14.66L36.62 22L35.15 22L35.15 14.66ZM43.58 16.02L42.65 16.02L42.65 13L43.74 13L43.74 13.73L43.58 16.02ZM47.62 19.42L47.62 19.42L49.10 19.42Q49.10 20.15 49.58 20.55Q50.06 20.95 50.96 20.95L50.96 20.95Q51.73 20.95 52.12 20.63Q52.51 20.32 52.51 19.80L52.51 19.80Q52.51 19.24 52.12 18.94Q51.72 18.63 50.69 18.32Q49.66 18.01 49.05 17.63L49.05 17.63Q47.89 16.90 47.89 15.72L47.89 15.72Q47.89 14.69 48.73 14.02Q49.57 13.35 50.91 13.35L50.91 13.35Q51.80 13.35 52.50 13.68Q53.19 14.01 53.59 14.61Q53.99 15.22 53.99 15.96L53.99 15.96L52.51 15.96Q52.51 15.29 52.10 14.91Q51.68 14.54 50.90 14.54L50.90 14.54Q50.17 14.54 49.77 14.85Q49.37 15.16 49.37 15.71L49.37 15.71Q49.37 16.18 49.80 16.50Q50.23 16.81 51.23 17.10Q52.23 17.40 52.83 17.78Q53.43 18.16 53.72 18.65Q54.00 19.13 54.00 19.79L54.00 19.79Q54.00 20.86 53.18 21.49Q52.36 22.12 50.96 22.12L50.96 22.12Q50.04 22.12 49.26 21.77Q48.48 21.43 48.05 20.83Q47.62 20.22 47.62 19.42Z" fill="#FFFFFF"/><path class="svg__text" d="M79.54 17.80L79.54 17.80Q79.54 16.54 80.14 15.54Q80.74 14.55 81.79 13.99Q82.84 13.43 84.16 13.43L84.16 13.43Q85.31 13.43 86.23 13.84Q87.16 14.25 87.77 15.02L87.77 15.02L86.26 16.39Q85.45 15.40 84.28 15.40L84.28 15.40Q83.59 15.40 83.06 15.70Q82.53 16 82.23 16.54Q81.94 17.09 81.94 17.80L81.94 17.80Q81.94 18.51 82.23 19.05Q82.53 19.60 83.06 19.90Q83.59 20.20 84.28 20.20L84.28 20.20Q85.45 20.20 86.26 19.22L86.26 19.22L87.77 20.58Q87.16 21.35 86.24 21.76Q85.31 22.17 84.16 22.17L84.16 22.17Q82.84 22.17 81.79 21.61Q80.74 21.05 80.14 20.05Q79.54 19.06 79.54 17.80ZM91.88 17.80L91.88 17.80Q91.88 16.55 92.48 15.55Q93.09 14.56 94.15 14.00Q95.21 13.43 96.54 13.43L96.54 13.43Q97.87 13.43 98.94 14.00Q100.00 14.56 100.61 15.55Q101.21 16.55 101.21 17.80L101.21 17.80Q101.21 19.05 100.61 20.04Q100.00 21.04 98.94 21.60Q97.88 22.17 96.54 22.17L96.54 22.17Q95.21 22.17 94.15 21.60Q93.09 21.04 92.48 20.04Q91.88 19.05 91.88 17.80ZM94.28 17.80L94.28 17.80Q94.28 18.51 94.58 19.05Q94.88 19.60 95.40 19.90Q95.91 20.20 96.54 20.20L96.54 20.20Q97.18 20.20 97.70 19.90Q98.21 19.60 98.51 19.05Q98.81 18.51 98.81 17.80L98.81 17.80Q98.81 17.09 98.51 16.54Q98.21 16 97.70 15.70Q97.18 15.40 96.54 15.40L96.54 15.40Q95.91 15.40 95.39 15.70Q94.88 16 94.58 16.54Q94.28 17.09 94.28 17.80ZM112.33 22L105.94 22L105.94 13.60L108.32 13.60L108.32 20.11L112.33 20.11L112.33 22ZM123.13 22L116.75 22L116.75 13.60L119.13 13.60L119.13 20.11L123.13 20.11L123.13 22ZM128.97 22L126.54 22L130.25 13.60L132.60 13.60L136.31 22L133.84 22L133.18 20.37L129.63 20.37L128.97 22ZM131.41 15.93L130.32 18.61L132.49 18.61L131.41 15.93ZM145.01 22L140.47 22L140.47 13.60L144.77 13.60Q146.37 13.60 147.21 14.19Q148.05 14.79 148.05 15.79L148.05 15.79Q148.05 16.39 147.76 16.87Q147.46 17.34 146.92 17.62L146.92 17.62Q147.64 17.87 148.05 18.41Q148.46 18.94 148.46 19.70L148.46 19.70Q148.46 20.80 147.57 21.40Q146.68 22 145.01 22L145.01 22ZM142.82 18.58L142.82 20.28L144.81 20.28Q146.06 20.28 146.06 19.43L146.06 19.43Q146.06 18.58 144.81 18.58L144.81 18.58L142.82 18.58ZM142.82 15.31L142.82 16.94L144.45 16.94Q145.65 16.94 145.65 16.12L145.65 16.12Q145.65 15.31 144.45 15.31L144.45 15.31L142.82 15.31ZM152.75 17.80L152.75 17.80Q152.75 16.55 153.35 15.55Q153.95 14.56 155.02 14.00Q156.08 13.43 157.41 13.43L157.41 13.43Q158.74 13.43 159.80 14.00Q160.87 14.56 161.47 15.55Q162.08 16.55 162.08 17.80L162.08 17.80Q162.08 19.05 161.47 20.04Q160.87 21.04 159.81 21.60Q158.75 22.17 157.41 22.17L157.41 22.17Q156.08 22.17 155.02 21.60Q153.95 21.04 153.35 20.04Q152.75 19.05 152.75 17.80ZM155.14 17.80L155.14 17.80Q155.14 18.51 155.45 19.05Q155.75 19.60 156.26 19.90Q156.78 20.20 157.41 20.20L157.41 20.20Q158.05 20.20 158.57 19.90Q159.08 19.60 159.38 19.05Q159.68 18.51 159.68 17.80L159.68 17.80Q159.68 17.09 159.38 16.54Q159.08 16 158.57 15.70Q158.05 15.40 157.41 15.40L157.41 15.40Q156.77 15.40 156.26 15.70Q155.75 16 155.45 16.54Q155.14 17.09 155.14 17.80ZM169.19 22L166.81 22L166.81 13.60L170.65 13.60Q171.80 13.60 172.63 13.98Q173.47 14.35 173.93 15.06Q174.39 15.76 174.39 16.71L174.39 16.71Q174.39 17.62 173.96 18.30Q173.53 18.98 172.74 19.36L172.74 19.36L174.55 22L172.01 22L170.48 19.77L169.19 19.77L169.19 22ZM169.19 15.47L169.19 17.93L170.51 17.93Q171.24 17.93 171.61 17.61Q171.98 17.29 171.98 16.71L171.98 16.71Q171.98 16.12 171.61 15.79Q171.24 15.47 170.51 15.47L170.51 15.47L169.19 15.47ZM180.59 22L178.17 22L181.87 13.60L184.22 13.60L187.93 22L185.47 22L184.80 20.37L181.25 20.37L180.59 22ZM183.03 15.93L181.94 18.61L184.11 18.61L183.03 15.93ZM193.88 15.48L191.30 15.48L191.30 13.60L198.82 13.60L198.82 15.48L196.25 15.48L196.25 22L193.88 22L193.88 15.48ZM209.93 22L203.19 22L203.19 13.60L209.78 13.60L209.78 15.44L205.55 15.44L205.55 16.85L209.28 16.85L209.28 18.63L205.55 18.63L205.55 20.17L209.93 20.17L209.93 22Z" fill="#FFFFFF" x="78.78"/></svg>